<svg xmlns="http://www.w3.org/2000/svg" xmlns:xlink="http://www.w3.org/1999/xlink" version="1.0" id="Layer_1" x="0px" y="0px" width="100px" height="100px" viewBox="0 0 100 100" enable-background="new 0 0 100 100" xml:space="preserve">
    <path style="fill:#000000;fill-opacity:1;stroke:none" d="m 50.000018,12.494325 c -11.372165,0 -20.586413,9.214192 -20.586413,20.586386 0,11.372175 9.214248,20.667129 20.586413,20.667129 11.372185,0 20.586387,-9.294954 20.586387,-20.667129 0,-11.372194 -9.214202,-20.586386 -20.586387,-20.586386 z m 0,46.339545 c -20.555591,0 -37.372756,16.020252 -38.670137,36.2482 l 15.823254,0 c -1.060979,-6.623341 1.473284,-12.901013 6.216302,-17.114956 -2.636989,4.077628 -3.737822,9.000487 -2.66413,14.12791 0.217012,1.035789 0.514336,2.031633 0.888034,2.987046 l 36.813327,0 c 0.373698,-0.955413 0.671077,-1.951257 0.888025,-2.987046 1.07371,-5.127423 -0.02702,-10.050282 -2.664129,-14.12791 4.743008,4.213943 7.277298,10.491615 6.21632,17.114956 l 15.823235,0 C 87.372756,74.854122 70.555582,58.83387 50.000018,58.83387 z" id="path3024"/>  
</svg>