<svg xmlns="http://www.w3.org/2000/svg" xmlns:xlink="http://www.w3.org/1999/xlink" version="1.1" id="Layer_1" x="0px" y="0px" width="100px" height="100px" viewBox="0 0 100 100" enable-background="new 0 0 100 100" xml:space="preserve">
<g id="XMLID_1_">
	<g id="XMLID_2_">
		<g id="XMLID_3_">
			<g id="XMLID_4_">
				<g id="XMLID_5_">
					<g>
						<g id="XMLID_6_">
							<g>
								<path d="M75.203,60.249c0,0.617,0.109,1.212,0.33,1.741c0.221,0.529,0.53,1.014,0.926,1.411          c0.397,0.375,0.881,0.705,1.455,0.948c0.065,0.021,0.132,0.043,0.198,0.065c0.462,0.154,0.948,0.265,1.499,0.286          c0.066,0,0.154,0,0.221,0c0.991,0,1.851-0.242,2.556-0.683c0.53-0.331,0.948-0.727,1.301-1.234          c0.088-0.131,0.176-0.264,0.242-0.419V58.2c-0.176-0.332-0.397-0.64-0.639-0.926c-0.11-0.131-0.242-0.264-0.374-0.375          c-0.177-0.154-0.375-0.286-0.574-0.419c-0.352-0.221-0.749-0.396-1.167-0.528c-0.418-0.133-0.881-0.176-1.344-0.176          c-0.441,0-0.882,0.043-1.301,0.176c-0.198,0.043-0.374,0.088-0.551,0.176c-0.572,0.243-1.058,0.573-1.476,0.97          c-0.397,0.396-0.727,0.881-0.97,1.433c-0.065,0.176-0.132,0.375-0.154,0.551C75.247,59.455,75.203,59.852,75.203,60.249z           M97.393,54.562c0.419,1.433,0.64,2.954,0.64,4.496c0,0.838-0.065,1.675-0.242,2.513c-0.155,0.837-0.398,1.653-0.707,2.424          c-0.33,0.771-0.704,1.499-1.167,2.182c-0.463,0.683-1.014,1.278-1.631,1.785c-0.638,0.506-1.321,0.925-2.071,1.212          c-0.771,0.308-1.609,0.462-2.49,0.462c-0.595,0-1.146-0.067-1.652-0.199c-0.507-0.154-0.948-0.33-1.344-0.595          c-0.618-0.396-1.146-0.902-1.564-1.476c-0.64,0.462-1.367,0.859-2.16,1.146c-2.116,0.771-4.716,0.706-6.766-0.153          c-1.079-0.441-2.049-1.081-2.842-1.874c-0.617-0.617-1.124-1.3-1.521-2.071c-0.132-0.243-0.242-0.486-0.352-0.728          c-0.441-1.058-0.661-2.204-0.661-3.438c0-1.19,0.243-2.358,0.706-3.416c0.242-0.574,0.551-1.102,0.903-1.608          c0.288-0.419,0.617-0.816,0.992-1.19c0.684-0.683,1.477-1.234,2.358-1.675c0.155-0.066,0.331-0.154,0.485-0.22          c1.874-0.815,4.142-0.927,6.148-0.332c0.154,0.044,0.308,0.111,0.463,0.155c0.352,0.132,0.683,0.265,1.013,0.419v-1.058          h4.319v12.208c0,0.749,0.132,1.146,0.242,1.344c0.155,0.265,0.33,0.463,0.53,0.595c0.197,0.11,0.462,0.176,0.792,0.176          c0.75,0,1.322-0.198,1.807-0.595c0.507-0.418,0.927-0.947,1.234-1.542c0.309-0.617,0.53-1.256,0.662-1.917          c0.132-0.662,0.198-1.522,0.198-2.535c0-1.123-0.176-2.248-0.486-3.306c-0.33-1.079-0.792-2.093-1.388-3.041          c-0.572-0.948-1.3-1.807-2.137-2.6c-0.816-0.793-1.764-1.477-2.777-2.049c-1.014-0.574-2.137-1.014-3.327-1.322          c-0.221-0.066-0.463-0.11-0.683-0.154c-2.16-0.486-4.563-0.419-6.678,0.154c-1.19,0.331-2.292,0.793-3.306,1.388          c-0.065,0.043-0.132,0.088-0.198,0.132c-0.948,0.551-1.807,1.256-2.578,2.027c-0.286,0.264-0.551,0.55-0.793,0.859          c-0.507,0.595-0.971,1.234-1.366,1.917c-0.574,1.014-1.037,2.116-1.367,3.283c-0.331,1.169-0.484,2.38-0.484,3.637          c0,1.277,0.154,2.512,0.484,3.681c0.066,0.263,0.154,0.506,0.22,0.749c0.31,0.904,0.705,1.763,1.146,2.557          c0.595,1.014,1.322,1.96,2.159,2.776c0.816,0.837,1.763,1.564,2.776,2.159c1.014,0.595,2.116,1.058,3.306,1.388          c2.358,0.64,5.047,0.64,7.405-0.021c1.212-0.354,2.336-0.837,3.394-1.477l0.462-0.286l2.225,3.701l-0.462,0.287          c-1.366,0.838-2.843,1.478-4.429,1.94c-1.565,0.44-3.219,0.683-4.937,0.683c-1.653,0-3.262-0.221-4.804-0.662          c-1.542-0.418-2.997-1.035-4.341-1.806c-1.323-0.793-2.557-1.741-3.658-2.843c-1.102-1.102-2.072-2.336-2.843-3.658          c-0.793-1.344-1.388-2.799-1.83-4.341c-0.044-0.132-0.065-0.265-0.088-0.397c-0.375-1.411-0.551-2.887-0.551-4.429          c0-1.631,0.22-3.262,0.639-4.783c0.441-1.542,1.036-2.996,1.83-4.319c0.683-1.19,1.52-2.292,2.468-3.261          c0.109-0.133,0.242-0.265,0.375-0.396c0.904-0.926,1.917-1.741,3.019-2.446c0.198-0.132,0.419-0.264,0.64-0.396          c1.344-0.771,2.799-1.389,4.341-1.808c2.491-0.683,5.245-0.814,7.824-0.396c0.639,0.088,1.255,0.219,1.851,0.375          c1.542,0.418,2.996,0.991,4.319,1.741c1.344,0.749,2.578,1.652,3.68,2.711c1.081,1.035,2.028,2.203,2.821,3.481          C96.358,51.742,96.975,53.13,97.393,54.562z"/>
								<path d="M82.916,25.101v12.604c-0.772-0.065-1.564-0.11-2.38-0.11c-4.76,0-9.212,1.455-12.87,3.966l-2.534-3.371          l17.784-13.156C82.916,25.057,82.916,25.078,82.916,25.101z"/>
								<path d="M80.756,21.112L45.101,47.335L9.754,20.913c0.661-0.375,1.432-0.572,2.27-0.572h66.131          C79.125,20.341,80.006,20.627,80.756,21.112z"/>
								<path d="M61.584,40.834l2.667,3.526c-4.122,4.166-6.677,9.895-6.677,16.197c0,1.323,0.109,2.601,0.33,3.856H12.024          c-0.397,0-0.771-0.044-1.146-0.132l17.827-23.578l16.395,12.317L61.584,40.834z"/>
								<path d="M25.18,38.058L7.573,61.329c-0.199-0.53-0.309-1.08-0.309-1.675V25.101c0-0.176,0-0.332,0.021-0.486L25.18,38.058z"/>
							</g>
						</g>
					</g>
				</g>
			</g>
		</g>
	</g>
</g>
</svg>