<svg xmlns="http://www.w3.org/2000/svg" xmlns:xlink="http://www.w3.org/1999/xlink" version="1.1" x="0px" y="0px" width="100px" height="100px" viewBox="0 0 100 100" enable-background="new 0 0 100 100" xml:space="preserve">
<g id="Captions">
</g>
<g id="Your_Icon">
	<g>
		<path d="M78.748,36.303L56.134,13.688L42.842,26.977l9.275,9.274c-0.209,0.225-0.401,0.432-0.616,0.661    c-2.437,2.596-5.353,5.561-8.555,8.657c-1.577,1.572-3.277,3.125-4.98,4.724c-1.701,1.607-3.457,3.207-5.242,4.782    c-3.518,3.195-7.131,6.299-10.522,9.204c-3.431,2.868-6.652,5.525-9.474,7.74c-5.609,4.462-9.584,7.204-9.584,7.204    c-0.694,0.482-1.339,1.109-1.847,1.848c-2.271,3.29-1.443,7.797,1.847,10.065c3.287,2.271,7.796,1.445,10.066-1.847    c0,0,2.743-3.973,7.203-9.587c2.218-2.819,4.874-6.04,7.743-9.471c2.903-3.389,6.01-7.002,9.203-10.523    c1.577-1.782,3.176-3.541,4.779-5.24c1.603-1.708,3.153-3.407,4.727-4.984c3.095-3.201,6.063-6.111,8.656-8.551    c0.229-0.216,0.437-0.409,0.658-0.617l9.278,9.274L78.748,36.303z"/>
		<path d="M40.392,25.694L54.85,11.239c0.834-0.835,0.841-2.194,0-3.03c-0.84-0.837-2.195-0.837-3.032,0L37.362,22.663    c-0.837,0.836-0.837,2.194,0,3.031C38.2,26.532,39.555,26.53,40.392,25.694z"/>
		<path d="M84.228,37.585c-0.838-0.837-2.196-0.835-3.03,0L66.74,52.04c-0.837,0.838-0.837,2.194,0,3.03    c0.837,0.837,2.192,0.837,3.026,0l14.461-14.454C85.062,39.779,85.064,38.42,84.228,37.585z"/>
	</g>
	<path d="M48.292,92.419c-1.945,0-3.519-1.575-3.519-3.519l0,0c0-1.942,1.574-3.518,3.519-3.518h48.174   c1.945,0,3.519,1.575,3.519,3.518l0,0c0,1.943-1.573,3.519-3.519,3.519H48.292z"/>
</g>
</svg>