<svg xmlns="http://www.w3.org/2000/svg" xmlns:xlink="http://www.w3.org/1999/xlink" version="1.1" id="Layer_1" x="0px" y="0px" width="100.0px" height="100px" viewBox="0 0 512 512" enable-background="new 0 0 512 512" xml:space="preserve">
<path d="M32,480h480v32H0V0h32v96h32v32H32v64h32v32H32v64h32v32H32v64h32v32H32V480z M96,336c0-26.5,21.484-48,48-48  c4.984,0,9.688,0.969,14.219,2.375l41.844-55.813C194.984,226.969,192,217.813,192,208c0-26.5,21.5-48,48-48s48,21.5,48,48  c0,5-0.969,9.688-2.391,14.219l55.797,41.844C349.031,259,358.156,256,368,256c2,0,3.875,0.344,5.813,0.594L429.5,145.25  c-8.313-8.625-13.5-20.313-13.5-33.25c0-26.5,21.5-48,48-48s48,21.5,48,48s-21.5,48-48,48c-2,0-3.875-0.344-5.813-0.594  L402.531,270.75C410.844,279.375,416,291.063,416,304c0,26.5-21.5,48-48,48s-48-21.5-48-48c0-4.969,0.969-9.688,2.375-14.219  l-55.797-41.844C258.969,253,249.828,256,240,256c-4.984,0-9.688-0.969-14.203-2.375l-41.859,55.781  C189.016,317.031,192,326.156,192,336c0,26.5-21.484,48-48,48S96,362.5,96,336z M448,112c0,8.844,7.156,16,16,16s16-7.156,16-16  s-7.156-16-16-16S448,103.156,448,112z M352,304c0,8.844,7.156,16,16,16s16-7.156,16-16s-7.156-16-16-16S352,295.156,352,304z   M224,208c0,8.844,7.156,16,16,16s16-7.156,16-16s-7.156-16-16-16S224,199.156,224,208z M128,336c0,8.844,7.156,16,16,16  s16-7.156,16-16s-7.156-16-16-16S128,327.156,128,336z"/>
</svg>