<svg xmlns="http://www.w3.org/2000/svg" xmlns:xlink="http://www.w3.org/1999/xlink" version="1.0" id="Layer_1" x="0px" y="0px" width="50px" height="50px" viewBox="0 0 50 50" enable-background="new 0 0 50 50" xml:space="preserve">
<g>
	<g>
		<g>
			<path fill="#000000" d="M25.325,11.051c12.468,0,21.576-2.238,21.576-4.999c0-2.76-9.107-4.999-21.576-4.999     c-12.469,0-21.576,2.238-21.576,4.999C3.749,8.813,12.856,11.051,25.325,11.051z"/>
			<path fill="#000000" d="M41.203,30.984c2.299,0,4.201,0.909,5.74,2.381C47.027,33.295,47,33.225,47,33.156V22.278     c-4,2.167-13.102,3.289-22,3.289c-8.899,0-18-1.122-22-3.289v10.878c2,1.685,9.892,3.748,22.179,3.748     c2.846,0,5.535-0.115,7.914-0.306C34.3,33.324,37.512,30.984,41.203,30.984z"/>
			<path fill="#000000" d="M32.631,39.557c0-0.383,0.035-0.758,0.084-1.127c-2.398,0.174-5.042,0.266-7.536,0.266     C16.279,38.695,7,37.574,3,35.406v8.565c0,0.066-0.022,0.132-0.022,0.2C2.978,44.238,3,44.305,3,44.371V45h0.18     c1.341,2,10.22,4.365,22.088,4.365c5.361,0,10.203-0.597,13.968-1.31C35.438,47.177,32.631,43.623,32.631,39.557z"/>
			<path fill="#000000" d="M47,20.028V9.12c-3,2.376-12.83,3.607-22,3.607S7,11.496,3,9.119v10.909c2,1.685,9.713,3.747,22,3.747     C37.288,23.775,46,21.712,47,20.028z"/>
		</g>
	</g>
	<g>
		<g>
			<g>
				
					<rect x="38.301" y="39.056" transform="matrix(-0.8125 -0.583 0.583 -0.8125 50.2854 95.3629)" fill="#000000" width="4.358" height="1.075"/>
			</g>
			<g>
				
					<rect x="39.18" y="38.325" transform="matrix(-0.5783 0.8158 -0.8158 -0.5783 97.9415 27.105)" fill="#000000" width="5.572" height="1.079"/>
			</g>
		</g>
		<g>
			<path fill="#000000" d="M41.143,33.307c-3.486,0-6.324,2.838-6.324,6.325c0,3.49,2.838,6.327,6.324,6.327     c3.49,0,6.326-2.837,6.326-6.327C47.469,36.145,44.633,33.307,41.143,33.307z M41.145,33.467c0.313,0,0.566,0.254,0.566,0.566     c0,0.314-0.254,0.568-0.566,0.568s-0.568-0.254-0.568-0.568C40.576,33.721,40.832,33.467,41.145,33.467z M41.143,44.613     c-2.744,0-4.979-2.234-4.979-4.981c0-2.745,2.234-4.979,4.979-4.979c2.748,0,4.98,2.234,4.98,4.979     C46.123,42.379,43.891,44.613,41.143,44.613z"/>
		</g>
	</g>
</g>
</svg>