<svg xmlns="http://www.w3.org/2000/svg" xmlns:xlink="http://www.w3.org/1999/xlink" version="1.1" id="Layer_1" x="0px" y="0px" width="100px" height="100px" viewBox="0 0 100 100" enable-background="new 0 0 100 100" xml:space="preserve">
<g>
	<path d="M81.138,41.692c5.357,0,9.699-4.344,9.699-9.698c0-5.358-4.342-9.698-9.699-9.698c-5.351,0-9.697,4.34-9.697,9.698   C71.44,37.348,75.787,41.692,81.138,41.692z M81.367,25.474c0.641,0,1.159,0.519,1.159,1.159l-0.505,7.417   c0,0.361-0.294,0.654-0.654,0.654s-0.654-0.292-0.654-0.654l-0.505-7.417C80.208,25.993,80.727,25.474,81.367,25.474z    M81.367,36.304c0.641,0,1.159,0.519,1.159,1.159s-0.519,1.159-1.159,1.159s-1.159-0.519-1.159-1.159S80.727,36.304,81.367,36.304z   "/>
	<path d="M81.138,44.203c-6.74,0-12.205-5.466-12.205-12.208c0-0.832,0.085-1.643,0.24-2.428   c-5.923-2.298-12.863-3.624-20.273-3.624c-21.81,0-39.491,11.446-39.491,25.565c0,5.611,2.796,10.797,7.534,15.013   c-2.679,6.061-7.534,10.127-7.534,10.127c9.964-0.125,15.807-1.726,19.126-3.233c5.945,2.319,12.914,3.655,20.365,3.655   c21.81,0,39.488-11.445,39.488-25.562c0-2.945-0.772-5.772-2.183-8.402C84.662,43.809,82.949,44.203,81.138,44.203z M33.932,54.852   c-1.494,0-2.702-1.21-2.702-2.701c0-1.494,1.208-2.702,2.702-2.702c1.491,0,2.701,1.208,2.701,2.702   C36.633,53.642,35.423,54.852,33.932,54.852z M48.899,54.852c-1.494,0-2.702-1.21-2.702-2.701c0-1.494,1.208-2.702,2.702-2.702   c1.491,0,2.7,1.208,2.7,2.702C51.6,53.642,50.39,54.852,48.899,54.852z M63.867,54.852c-1.491,0-2.702-1.21-2.702-2.701   c0-1.494,1.211-2.702,2.702-2.702c1.49,0,2.701,1.208,2.701,2.702C66.568,53.642,65.357,54.852,63.867,54.852z"/>
</g>
</svg>