<svg xmlns="http://www.w3.org/2000/svg" xmlns:xlink="http://www.w3.org/1999/xlink" version="1.1" id="Layer_1" x="0px" y="0px" width="100px" height="100px" viewBox="0 0 100 100" enable-background="new 0 0 100 100" xml:space="preserve">
<path d="M97,7H3c-1.657,0-3,1.343-3,3v79c0,1.657,1.343,3,3,3h94c1.657,0,3-1.343,3-3V10C100,8.343,98.657,7,97,7z M63,79.125  C63,80.16,61.9,81,60.942,81H10.734C9.777,81,9,80.16,9,79.125v-0.25C9,77.84,9.777,77,10.734,77h50.208C61.9,77,63,77.84,63,78.875  V79.125z M10.678,65h48.471c0.927,0,1.922,0.812,1.922,1.812v0.375c0,1-0.995,1.812-1.922,1.812H10.678C9.751,69,9,68.188,9,67.188  v-0.375C9,65.812,9.751,65,10.678,65z M9,55.125v-0.25C9,53.84,9.777,53,10.734,53h45.58c0.96,0,1.864,0.84,1.864,1.875v0.25  c0,1.035-0.904,1.875-1.864,1.875h-45.58C9.777,57,9,56.16,9,55.125z M90.761,77.979l-3.185,2.364  c-0.232,0.172-0.513,0.265-0.797,0.265c-0.067,0-0.136-0.005-0.205-0.016c-0.353-0.055-0.669-0.249-0.879-0.537l-6.42-8.856  l-3.687,2.714c-0.361,0.268-0.831,0.334-1.256,0.179c-0.422-0.157-0.736-0.513-0.84-0.95l-4.541-19.36  c-0.122-0.519,0.074-1.059,0.501-1.377c0.428-0.319,1.002-0.354,1.463-0.091l17.275,9.851c0.391,0.222,0.642,0.625,0.673,1.073  c0.028,0.448-0.17,0.881-0.525,1.152l-3.734,2.839l6.441,8.892C91.476,76.715,91.348,77.543,90.761,77.979z M93,39  c0,1.657-1.343,3-3,3H10c-1.657,0-3-1.343-3-3V20c0-1.657,1.343-3,3-3h80c1.657,0,3,1.343,3,3V39z"/>
</svg>